<svg id="visual" viewBox="0 0 900 150" width="900" height="150" xmlns="http://www.w3.org/2000/svg" xmlns:xlink="http://www.w3.org/1999/xlink" version="1.1"><rect x="0" y="0" width="900" height="150" fill="#4747FF"></rect><path d="M0 70L21.5 67.3C43 64.7 86 59.3 128.8 59.7C171.7 60 214.3 66 257.2 71.3C300 76.7 343 81.3 385.8 81.7C428.7 82 471.3 78 514.2 74.7C557 71.3 600 68.7 642.8 69C685.7 69.3 728.3 72.7 771.2 74.8C814 77 857 78 878.5 78.5L900 79L900 0L878.5 0C857 0 814 0 771.2 0C728.3 0 685.7 0 642.8 0C600 0 557 0 514.2 0C471.3 0 428.7 0 385.8 0C343 0 300 0 257.2 0C214.3 0 171.7 0 128.8 0C86 0 43 0 21.5 0L0 0Z" fill="#2700ff"></path><path d="M0 41L21.5 41.3C43 41.7 86 42.3 128.8 46C171.7 49.7 214.3 56.3 257.2 56.5C300 56.7 343 50.3 385.8 48C428.7 45.7 471.3 47.3 514.2 47.7C557 48 600 47 642.8 50.2C685.7 53.3 728.3 60.7 771.2 62.2C814 63.7 857 59.3 878.5 57.2L900 55L900 0L878.5 0C857 0 814 0 771.2 0C728.3 0 685.7 0 642.8 0C600 0 557 0 514.2 0C471.3 0 428.7 0 385.8 0C343 0 300 0 257.2 0C214.3 0 171.7 0 128.8 0C86 0 43 0 21.5 0L0 0Z" fill="#1606d0"></path><path d="M0 42L21.5 40.2C43 38.3 86 34.7 128.8 35.2C171.7 35.7 214.3 40.3 257.2 43.2C300 46 343 47 385.8 47.3C428.7 47.7 471.3 47.3 514.2 47.3C557 47.3 600 47.7 642.8 48C685.7 48.3 728.3 48.7 771.2 47.7C814 46.7 857 44.3 878.5 43.2L900 42L900 0L878.5 0C857 0 814 0 771.2 0C728.3 0 685.7 0 642.8 0C600 0 557 0 514.2 0C471.3 0 428.7 0 385.8 0C343 0 300 0 257.2 0C214.3 0 171.7 0 128.8 0C86 0 43 0 21.5 0L0 0Z" fill="#0707a2"></path><path d="M0 20L21.5 22C43 24 86 28 128.8 29.8C171.7 31.7 214.3 31.3 257.2 31.2C300 31 343 31 385.8 30.3C428.7 29.7 471.3 28.3 514.2 27.2C557 26 600 25 642.8 24C685.7 23 728.3 22 771.2 21.7C814 21.3 857 21.7 878.5 21.8L900 22L900 0L878.5 0C857 0 814 0 771.2 0C728.3 0 685.7 0 642.8 0C600 0 557 0 514.2 0C471.3 0 428.7 0 385.8 0C343 0 300 0 257.2 0C214.3 0 171.7 0 128.8 0C86 0 43 0 21.5 0L0 0Z" fill="#010576"></path><path d="M0 11L21.5 10.8C43 10.7 86 10.3 128.8 10.7C171.7 11 214.3 12 257.2 12.2C300 12.3 343 11.7 385.8 11.8C428.7 12 471.3 13 514.2 14C557 15 600 16 642.8 17.3C685.7 18.7 728.3 20.3 771.2 19.2C814 18 857 14 878.5 12L900 10L900 0L878.5 0C857 0 814 0 771.2 0C728.3 0 685.7 0 642.8 0C600 0 557 0 514.2 0C471.3 0 428.7 0 385.8 0C343 0 300 0 257.2 0C214.3 0 171.7 0 128.8 0C86 0 43 0 21.5 0L0 0Z" fill="#02014d"></path></svg>